<svg width="40" height="40" viewBox="0 0 40 40" fill="none" xmlns="http://www.w3.org/2000/svg">
<g clip-path="url(#clip0_553_793)">
<path d="M32.4667 20.5833C29.85 13.7833 20.5334 13.4167 22.7834 3.53333C22.95 2.8 22.1667 2.23333 21.5334 2.61667C15.4834 6.18333 11.1334 13.3333 14.7834 22.7C15.0834 23.4667 14.1834 24.1833 13.5334 23.6833C10.5167 21.4 10.2 18.1167 10.4667 15.7667C10.5667 14.9 9.43335 14.4833 8.95002 15.2C7.81669 16.9333 6.66669 19.7333 6.66669 23.95C7.30002 33.2833 15.1834 36.15 18.0167 36.5167C22.0667 37.0333 26.45 36.2833 29.6 33.4C33.0667 30.1833 34.3334 25.05 32.4667 20.5833ZM17 28.9667C19.4 28.3833 20.6334 26.65 20.9667 25.1167C21.5167 22.7333 19.3667 20.4 20.8167 16.6333C21.3667 19.75 26.2667 21.7 26.2667 25.1C26.4 29.3167 21.8334 32.9333 17 28.9667Z" fill="#F3705A"/>
</g>
<defs>
<clipPath id="clip0_553_793">
<rect width="40" height="40" fill="white"/>
</clipPath>
</defs>
</svg>
