<svg width="40" height="40" viewBox="0 0 40 40" fill="none" xmlns="http://www.w3.org/2000/svg">
<g clip-path="url(#clip0_553_816)">
<path d="M32.4666 20.5833C29.85 13.7833 20.5333 13.4167 22.7833 3.53333C22.95 2.8 22.1666 2.23333 21.5333 2.61667C15.4833 6.18333 11.1333 13.3333 14.7833 22.7C15.0833 23.4667 14.1833 24.1833 13.5333 23.6833C10.5166 21.4 10.2 18.1167 10.4666 15.7667C10.5666 14.9 9.43329 14.4833 8.94996 15.2C7.81663 16.9333 6.66663 19.7333 6.66663 23.95C7.29996 33.2833 15.1833 36.15 18.0166 36.5167C22.0666 37.0333 26.45 36.2833 29.6 33.4C33.0666 30.1833 34.3333 25.05 32.4666 20.5833ZM17 28.9667C19.4 28.3833 20.6333 26.65 20.9666 25.1167C21.5166 22.7333 19.3666 20.4 20.8166 16.6333C21.3666 19.75 26.2666 21.7 26.2666 25.1C26.4 29.3167 21.8333 32.9333 17 28.9667Z" fill="#95A5A6"/>
</g>
<defs>
<clipPath id="clip0_553_816">
<rect width="40" height="40" fill="white"/>
</clipPath>
</defs>
</svg>
